<?xml version="1.0" encoding="utf-8"?><svg version="1.1" id="Layer_1" xmlns="http://www.w3.org/2000/svg" xmlns:xlink="http://www.w3.org/1999/xlink" x="0px" y="0px" viewBox="0 0 122.88 70.41" style="enable-background:new 0 0 122.88 70.41" xml:space="preserve"><g><path d="M60.91,19.12c6.95,0,13.24,2.95,17.8,7.72c4.55,4.77,7.37,11.37,7.37,18.64c0,1.94-0.2,3.83-0.58,5.65h31.61 c2.1,0,2.62,1.16,2.62,2.59c0,1.43-0.52,2.59-2.62,2.59H7.09c-2.1,0-2.62-1.16-2.62-2.59c0-1.43,0.52-2.59,2.62-2.59h29.23 c-0.38-1.82-0.58-3.71-0.58-5.65c0-7.28,2.82-13.87,7.37-18.64C47.67,22.08,53.96,19.12,60.91,19.12L60.91,19.12L60.91,19.12z M63.4,70.41c-2.1,0-2.62-1.16-2.62-2.59s0.52-2.59,2.62-2.59h56.86c2.1,0,2.62,1.16,2.62,2.59s-0.52,2.59-2.62,2.59H63.4 L63.4,70.41z M2.62,70.41c-2.1,0-2.62-1.16-2.62-2.59s0.52-2.59,2.62-2.59h29.51c2.1,0,2.62,1.16,2.62,2.59s-0.52,2.59-2.62,2.59 H2.62L2.62,70.41z M38.39,9.46c-0.78-1.35-0.32-3.07,1.03-3.85c1.35-0.78,3.07-0.32,3.85,1.03l3.62,6.27 c0.78,1.35,0.32,3.07-1.03,3.85c-1.35,0.78-3.07,0.32-3.85-1.03L38.39,9.46L38.39,9.46L38.39,9.46z M58.67,2.83 c0-1.56,1.27-2.83,2.83-2.83c1.56,0,2.83,1.27,2.83,2.83v7.24c0,1.56-1.27,2.83-2.83,2.83c-1.56,0-2.83-1.26-2.83-2.83V2.83 L58.67,2.83L58.67,2.83z M79.56,7.23c0.77-1.35,2.49-1.81,3.84-1.04c1.35,0.77,1.81,2.49,1.04,3.84l-3.62,6.27 c-0.77,1.35-2.49,1.81-3.84,1.04c-1.35-0.77-1.81-2.49-1.04-3.84L79.56,7.23L79.56,7.23L79.56,7.23z M95.45,21.48 c1.35-0.78,3.07-0.32,3.85,1.03c0.78,1.35,0.32,3.07-1.03,3.85L92,29.98c-1.35,0.78-3.07,0.32-3.85-1.03 c-0.78-1.35-0.32-3.07,1.03-3.85L95.45,21.48L95.45,21.48L95.45,21.48z M102.08,41.76c1.56,0,2.83,1.27,2.83,2.83 c0,1.56-1.27,2.83-2.83,2.83h-7.24c-1.56,0-2.83-1.26-2.83-2.83s1.26-2.83,2.83-2.83H102.08L102.08,41.76L102.08,41.76z M19.74,46.25c-1.56,0-2.83-1.27-2.83-2.83c0-1.56,1.27-2.83,2.83-2.83h7.24c1.56,0,2.83,1.26,2.83,2.83s-1.27,2.83-2.83,2.83 H19.74L19.74,46.25L19.74,46.25z M24.14,25.35c-1.35-0.77-1.81-2.49-1.04-3.84c0.77-1.35,2.49-1.81,3.84-1.04l6.27,3.62 c1.35,0.77,1.81,2.49,1.04,3.84c-0.77,1.35-2.49,1.81-3.84,1.04L24.14,25.35L24.14,25.35L24.14,25.35z"/></g></svg>