<?xml version="1.0" encoding="utf-8"?><svg version="1.1" id="Layer_1" xmlns="http://www.w3.org/2000/svg" xmlns:xlink="http://www.w3.org/1999/xlink" x="0px" y="0px" viewBox="0 0 122.88 81.01" style="enable-background:new 0 0 122.88 81.01" xml:space="preserve"><style type="text/css">.st0{fill-rule:evenodd;clip-rule:evenodd;}</style><g><path class="st0" d="M94.15,36.75h11.69V17.58c0-1.61-0.66-3.07-1.72-4.13c-1.06-1.06-2.52-1.72-4.13-1.72 c-1.61,0-3.07,0.66-4.13,1.72c-1.06,1.06-1.72,2.52-1.72,4.13V36.75L94.15,36.75L94.15,36.75z M10.6,0c2.93,0,5.58,1.19,7.5,3.1 c1.92,1.92,3.11,4.57,3.11,7.5c0,2.93-1.19,5.58-3.11,7.5c-1.92,1.92-4.57,3.11-7.5,3.11c-2.93,0-5.58-1.19-7.5-3.11 C1.19,16.18,0,13.53,0,10.6c0-2.93,1.19-5.58,3.11-7.5C5.02,1.19,7.67,0,10.6,0L10.6,0z M14.53,6.67c-1-1-2.39-1.63-3.93-1.63 c-1.53,0-2.92,0.62-3.93,1.63c-1,1-1.63,2.39-1.63,3.93c0,1.53,0.62,2.92,1.63,3.93c1,1,2.39,1.63,3.93,1.63 c1.53,0,2.92-0.62,3.93-1.63c1-1,1.63-2.39,1.63-3.93C16.16,9.07,15.53,7.68,14.53,6.67L14.53,6.67z M48.03,69.92 c4.05,0,7.58-1.21,10.58-3.65c3.03-2.44,4.7-5.49,5.01-9.16h10.71c-0.21,3.8-1.5,7.41-3.9,10.83c-2.42,3.42-5.63,6.16-9.64,8.2 c-4.01,2.02-8.26,3.05-12.75,3.05c-8.99,0-16.17-3-21.49-9.01c-5.3-6.01-7.97-14.25-7.97-24.69v-1.9c0-6.43,1.19-12.17,3.55-17.17 c2.36-5.01,5.76-8.91,10.18-11.69c4.42-2.78,9.64-4.15,15.67-4.15c7.43,0,13.59,2.21,18.51,6.66c4.9,4.45,7.51,10.23,7.85,17.3 H63.62c-0.31-4.28-1.94-7.8-4.86-10.56c-2.9-2.75-6.51-4.13-10.79-4.13c-5.74,0-10.18,2.07-13.36,6.2 c-3.15,4.15-4.74,10.12-4.74,17.97v2.13c0,7.62,1.57,13.5,4.72,17.61C37.72,67.85,42.21,69.92,48.03,69.92L48.03,69.92z M113.06,16.93c-0.83,0-1.5-0.67-1.5-1.5c0-0.83,0.67-1.5,1.5-1.5h8.32c0.83,0,1.5,0.67,1.5,1.5c0,0.83-0.67,1.5-1.5,1.5H113.06 L113.06,16.93z M113.06,25.38c-0.83,0-1.5-0.67-1.5-1.5c0-0.83,0.67-1.5,1.5-1.5h8.32c0.83,0,1.5,0.67,1.5,1.5 c0,0.83-0.67,1.5-1.5,1.5H113.06L113.06,25.38z M113.06,33.84c-0.83,0-1.5-0.67-1.5-1.5c0-0.83,0.67-1.5,1.5-1.5h8.32 c0.83,0,1.5,0.67,1.5,1.5c0,0.83-0.67,1.5-1.5,1.5H113.06L113.06,33.84z M113.06,42.29c-0.83,0-1.5-0.67-1.5-1.5 c0-0.83,0.67-1.5,1.5-1.5h8.32c0.83,0,1.5,0.67,1.5,1.5c0,0.83-0.67,1.5-1.5,1.5H113.06L113.06,42.29z M113.06,50.74 c-0.83,0-1.5-0.67-1.5-1.5c0-0.83,0.67-1.5,1.5-1.5h8.32c0.83,0,1.5,0.67,1.5,1.5c0,0.83-0.67,1.5-1.5,1.5H113.06L113.06,50.74z M108.84,52.53c4.04,2.83,6.68,7.52,6.68,12.83c0,8.65-7.01,15.65-15.65,15.65c-8.65,0-15.65-7.01-15.65-15.65 c0-5.42,2.76-10.2,6.95-13.01V17.58c0-2.43,0.99-4.64,2.6-6.24c1.6-1.6,3.81-2.6,6.24-2.6c2.43,0,4.64,0.99,6.25,2.6 c1.6,1.6,2.6,3.81,2.6,6.24V52.53L108.84,52.53L108.84,52.53z"/></g></svg>